<svg width="32" height="32" viewBox="0 0 32 32" fill="none" xmlns="http://www.w3.org/2000/svg">
<path d="M14.3924 0.044906C11.5674 0.352389 8.97232 1.33233 6.71479 2.93474C3.15724 5.4646 0.819714 9.26438 0.124705 13.6566C-0.0427967 14.7316 -0.0427986 17.2414 0.132204 18.3289C1.13972 24.7785 5.76728 29.9107 12.0149 31.5131C13.2824 31.8406 14.1249 31.9531 15.5599 31.9931C19.9725 32.1206 24.125 30.4782 27.25 27.3734C28.6126 26.0184 29.4876 24.796 30.3476 23.0336C32.0626 19.5488 32.4501 15.7315 31.4751 11.9392C31.2076 10.8843 30.8876 10.0443 30.3126 8.88191C27.9751 4.14967 23.6175 0.977352 18.2949 0.1374C17.4974 0.0124066 15.1874 -0.0475888 14.3924 0.044906ZM17.3374 2.17478C26.89 3.13723 32.6251 13.2442 28.5476 21.9137C28.2326 22.5886 27.5725 23.7361 27.5 23.7361C27.4875 23.7361 27.18 23.4761 26.825 23.1561C26.465 22.8411 25.89 22.3611 25.5375 22.1012C22.225 19.6238 17.9124 18.5164 13.8274 19.0963C10.5498 19.5563 7.6998 20.8987 5.16727 23.1611C4.81227 23.4761 4.50726 23.7361 4.49226 23.7361C4.47226 23.7361 4.30476 23.4886 4.12475 23.1811C1.13972 18.2214 1.50722 12.0317 5.05977 7.43949C7.9098 3.7572 12.6774 1.70731 17.3374 2.17478Z" fill="#1F1C2E"/>
<path d="M15.0273 4.31214C13.6598 4.53213 12.4648 5.1521 11.4548 6.17454C10.5947 7.04199 10.0322 8.03693 9.73973 9.22437C9.55973 9.95933 9.57973 11.4617 9.77223 12.1892C10.1072 13.4041 10.5872 14.2516 11.4223 15.099C12.0898 15.774 12.3898 15.994 13.1648 16.3815C15.5748 17.5889 18.4523 17.1489 20.4149 15.2665C21.2824 14.4466 21.8824 13.4116 22.2174 12.1967C22.4299 11.4367 22.4249 9.90683 22.2174 9.11937C21.8774 7.87194 21.4099 7.06449 20.5024 6.14954C19.5999 5.24709 18.7873 4.77462 17.5648 4.44713C16.9498 4.27714 15.6673 4.21215 15.0273 4.31214Z" fill="#1F1C2E"/>
</svg>
