<svg width="22" height="22" viewBox="0 0 22 22" fill="none" xmlns="http://www.w3.org/2000/svg">
<path d="M5.06336 0.0312271C4.86977 0.087141 4.59875 0.375313 4.54282 0.573162C4.51701 0.663485 4.4955 0.951656 4.4955 1.21402V1.69574L3.66953 1.71295C2.9253 1.73015 2.80055 1.74735 2.45209 1.85058C1.3508 2.18176 0.464607 3.05918 0.120454 4.17746L0 4.56455V11.8549V19.1452L0.120454 19.5323C0.464607 20.6462 1.3379 21.5194 2.45209 21.8634L2.83926 21.9839H6.56472H10.2859L10.4623 21.8677C10.729 21.6914 10.8408 21.4806 10.8408 21.1452C10.8408 20.8097 10.729 20.5989 10.4623 20.4226L10.2859 20.3065L6.67227 20.285L3.05436 20.2634L2.80485 20.1645C2.32734 19.971 1.96598 19.5925 1.7982 19.1065C1.72507 18.9 1.72077 18.5129 1.72077 11.8549C1.72077 5.19681 1.72507 4.80971 1.7982 4.60326C1.96598 4.11724 2.33164 3.73445 2.80485 3.5495C3.01995 3.46778 3.15761 3.45058 3.76848 3.43337L4.4869 3.41617L4.4998 3.99251C4.51701 4.50434 4.52562 4.58176 4.62026 4.72799C4.67618 4.81832 4.80094 4.94305 4.89558 5.00756C5.04185 5.10649 5.11928 5.12369 5.35589 5.12369C5.59249 5.12369 5.66993 5.10649 5.81619 5.00756C5.91083 4.94305 6.03559 4.81832 6.09151 4.72799C6.18616 4.58176 6.19476 4.50434 6.20767 3.99251L6.22487 3.42477H8.15213H10.0794L10.0966 3.99681C10.1095 4.53444 10.1181 4.58176 10.2257 4.7452C10.402 5.01616 10.6128 5.12369 10.9527 5.12369C11.185 5.12369 11.2624 5.10219 11.4087 5.00756C11.5033 4.94305 11.6281 4.81832 11.684 4.72799C11.7786 4.58176 11.7873 4.50434 11.8002 3.99251L11.8174 3.42477H13.7661H15.7149L15.7321 3.99681C15.745 4.53444 15.7536 4.58176 15.8612 4.7452C16.0375 5.01616 16.2483 5.12369 16.5882 5.12369C16.8205 5.12369 16.8979 5.10219 17.0442 5.00756C17.1388 4.94305 17.2636 4.81832 17.3195 4.72799C17.4142 4.58176 17.4228 4.50434 17.44 3.99251L17.4529 3.41617L18.1928 3.43337C18.8166 3.45058 18.9628 3.46348 19.1607 3.5452C19.6382 3.73445 19.9738 4.06563 20.1631 4.53014L20.262 4.77961L20.2835 7.55379L20.305 10.328L20.4083 10.4914C20.4642 10.5817 20.589 10.7065 20.6836 10.771C20.8299 10.8656 20.9073 10.8871 21.1396 10.8871C21.4795 10.8871 21.6903 10.7796 21.8666 10.5086L21.9828 10.3323V7.45057V4.56455L21.8623 4.17746C21.5182 3.06348 20.632 2.18176 19.5307 1.85058C19.1822 1.74735 19.0575 1.73015 18.2961 1.71295L17.4529 1.69574L17.4357 1.128C17.4228 0.594667 17.4142 0.547356 17.3066 0.383915C17.1302 0.117249 16.9194 0.00542068 16.5839 0.00542068C16.2483 0.00542068 16.0375 0.117249 15.8612 0.383915C15.7536 0.547356 15.745 0.594667 15.7321 1.1323L15.7149 1.70434H13.7661H11.8174L11.8002 1.1323C11.7873 0.624775 11.7786 0.547356 11.684 0.401119C11.6281 0.310797 11.5033 0.186066 11.4087 0.12155C11.2624 0.026926 11.185 0.00542068 10.9527 0.00542068C10.6128 0.00542068 10.402 0.112947 10.2257 0.383915C10.1181 0.547356 10.1095 0.594667 10.0966 1.1323L10.0794 1.70434H8.15213H6.22487L6.20767 1.1323C6.19476 0.594667 6.18616 0.547356 6.07861 0.383915C6.01408 0.289291 5.89363 0.168861 5.81189 0.117249C5.63551 0.00542068 5.27415 -0.033289 5.06336 0.0312271Z" fill="#1F1C2E"/>
<path d="M5.06336 8.20326C4.85686 8.26347 4.59445 8.54734 4.53422 8.7667C4.43528 9.14949 4.58584 9.54949 4.91279 9.75164C5.158 9.90648 5.57528 9.89788 5.81619 9.73874C6.08291 9.56239 6.19476 9.35164 6.19476 9.01616C6.19476 8.68498 6.08291 8.46992 5.8291 8.30218C5.64411 8.17745 5.29136 8.13444 5.06336 8.20326Z" fill="#1F1C2E"/>
<path d="M8.80602 8.20326C8.59952 8.26347 8.33711 8.54734 8.27688 8.7667C8.17794 9.14949 8.3285 9.54949 8.65545 9.75164C8.90066 9.90648 9.31794 9.89788 9.55885 9.73874C9.82557 9.56239 9.93742 9.35164 9.93742 9.01616C9.93742 8.68498 9.82557 8.46992 9.57176 8.30218C9.38677 8.17745 9.03402 8.13444 8.80602 8.20326Z" fill="#1F1C2E"/>
<path d="M12.5487 8.20326C12.3422 8.26347 12.0798 8.54734 12.0196 8.7667C11.9206 9.14949 12.0712 9.54949 12.3981 9.75164C12.6433 9.90648 13.0606 9.89788 13.3015 9.73874C13.5682 9.56239 13.6801 9.35164 13.6801 9.01616C13.6801 8.68498 13.5682 8.46992 13.3144 8.30218C13.1295 8.17745 12.7767 8.13444 12.5487 8.20326Z" fill="#1F1C2E"/>
<path d="M16.2914 8.20326C16.0849 8.26347 15.8224 8.54734 15.7622 8.7667C15.6633 9.14949 15.8138 9.54949 16.1408 9.75164C16.386 9.90648 16.8033 9.89788 17.0442 9.73874C17.3109 9.56239 17.4228 9.35164 17.4228 9.01616C17.4228 8.68498 17.3109 8.46992 17.0571 8.30218C16.8721 8.17745 16.5194 8.13444 16.2914 8.20326Z" fill="#1F1C2E"/>
<path d="M16.0461 11.6613C14.9104 11.8377 13.8737 12.3667 13.0907 13.171C12.6777 13.5882 12.3938 13.9968 12.1271 14.543C11.4216 15.9925 11.4216 17.6097 12.1271 19.0591C12.6562 20.1387 13.465 20.9473 14.5362 21.4677C15.9945 22.1774 17.6034 22.1774 19.0618 21.4677C20.133 20.9473 20.9417 20.1387 21.4709 19.0591C22.1764 17.6097 22.1764 15.9925 21.4709 14.543C20.9417 13.4635 20.133 12.6549 19.0618 12.1344C18.1068 11.6699 17.0442 11.5022 16.0461 11.6613ZM17.4099 13.3774C19.0876 13.7086 20.2835 15.128 20.2835 16.8011C20.2835 18.4742 19.0876 19.8936 17.4099 20.2247C16.2182 20.457 14.8932 19.971 14.1189 19.0161C13.052 17.7 13.052 15.9022 14.1189 14.586C14.8932 13.6355 16.2182 13.1452 17.4099 13.3774Z" fill="#1F1C2E"/>
<path d="M16.5064 14.2247C16.3043 14.285 16.0375 14.5688 15.9816 14.7796C15.9515 14.8957 15.9386 15.3344 15.9472 16.0226L15.9601 17.0893L16.0763 17.2613C16.1408 17.3559 16.2655 17.4807 16.3559 17.5366C16.515 17.6355 16.5452 17.6398 17.4228 17.6398C18.3003 17.6398 18.3305 17.6355 18.4896 17.5366C18.58 17.4807 18.7047 17.3559 18.7693 17.2613C18.9284 17.0204 18.937 16.6032 18.7822 16.3581C18.6144 16.0871 18.3993 15.971 18.0035 15.9495L17.668 15.9323L17.6508 15.343C17.6378 14.8183 17.6292 14.7409 17.5346 14.5946C17.3324 14.2678 16.885 14.1086 16.5064 14.2247Z" fill="#1F1C2E"/>
<path d="M5.06336 11.9452C4.85686 12.0054 4.59445 12.2893 4.53422 12.5086C4.43528 12.8914 4.58584 13.2914 4.91279 13.4936C5.158 13.6484 5.57528 13.6398 5.81619 13.4807C6.08291 13.3043 6.19476 13.0936 6.19476 12.7581C6.19476 12.4269 6.08291 12.2118 5.8291 12.0441C5.64411 11.9194 5.29136 11.8764 5.06336 11.9452Z" fill="#1F1C2E"/>
<path d="M8.80602 11.9452C8.59952 12.0054 8.33711 12.2893 8.27688 12.5086C8.17794 12.8914 8.3285 13.2914 8.65545 13.4936C8.90066 13.6484 9.31794 13.6398 9.55885 13.4807C9.82557 13.3043 9.93742 13.0936 9.93742 12.7581C9.93742 12.4269 9.82557 12.2118 9.57176 12.0441C9.38677 11.9194 9.03402 11.8764 8.80602 11.9452Z" fill="#1F1C2E"/>
<path d="M5.06336 15.6871C4.85686 15.7473 4.59445 16.0312 4.53422 16.2506C4.43528 16.6333 4.58584 17.0333 4.91279 17.2355C5.158 17.3903 5.57528 17.3817 5.81619 17.2226C6.08291 17.0462 6.19476 16.8355 6.19476 16.5C6.19476 16.1688 6.08291 15.9538 5.8291 15.786C5.64411 15.6613 5.29136 15.6183 5.06336 15.6871Z" fill="#1F1C2E"/>
<path d="M8.80602 15.6871C8.59952 15.7473 8.33711 16.0312 8.27688 16.2506C8.17794 16.6333 8.3285 17.0333 8.65545 17.2355C8.90066 17.3903 9.31794 17.3817 9.55885 17.2226C9.82557 17.0462 9.93742 16.8355 9.93742 16.5C9.93742 16.1688 9.82557 15.9538 9.57176 15.786C9.38677 15.6613 9.03402 15.6183 8.80602 15.6871Z" fill="#1F1C2E"/>
</svg>
