<svg width="22" height="22" viewBox="0 0 22 22" fill="none" xmlns="http://www.w3.org/2000/svg">
<path d="M10.137 0.163602C9.65367 0.396087 0.315668 9.73855 0.125801 10.1777C-0.0554358 10.6168 -0.0381751 11.409 0.160322 11.8481C0.462383 12.5112 1.24774 13.002 2.01584 13.002H2.32653V16.4978C2.32653 18.8485 2.36105 20.1057 2.42147 20.3209C2.58544 20.872 3.09463 21.4489 3.66423 21.7417L4.17342 22H6.32237H8.47132L8.67844 21.7589L8.88557 21.5178V18.7022C8.88557 16.0329 8.8942 15.8693 9.05818 15.6023C9.33435 15.1632 9.6623 15.0685 11 15.0685C12.3377 15.0685 12.6657 15.1632 12.9418 15.6023C13.1058 15.8693 13.1144 16.0329 13.1144 18.7022V21.5178L13.3216 21.7589L13.5287 22H15.6776H17.818L18.3099 21.7589C18.8363 21.5006 19.1298 21.2078 19.4404 20.6309C19.6303 20.2865 19.6303 20.2004 19.6562 16.6356L19.6821 13.002H19.9928C20.7523 13.002 21.5376 12.5112 21.8397 11.8481C22.0382 11.409 22.0554 10.6168 21.8742 10.1777C21.6843 9.73855 12.3463 0.396087 11.863 0.163602C11.6473 0.0602751 11.328 1.11572e-06 11 1.11572e-06C10.672 1.11572e-06 10.3527 0.0602751 10.137 0.163602ZM16.0228 5.96712C20.5624 10.4877 20.7091 10.6427 20.7091 10.9613C20.7091 11.1937 20.6487 11.3487 20.4933 11.4951C20.3035 11.6932 20.2172 11.7104 19.544 11.7104C18.8708 11.7104 18.7845 11.7276 18.5947 11.9256L18.3789 12.1323V15.9812C18.3789 19.3566 18.3617 19.856 18.2408 20.1143C17.9906 20.6481 17.7575 20.7084 16.0056 20.7084H14.4521L14.409 18.1252C14.3658 15.6368 14.3572 15.5249 14.1673 15.1374C13.8998 14.5949 13.287 14.0697 12.7433 13.9061C12.1392 13.7252 9.8608 13.7252 9.25668 13.9061C8.73886 14.0611 8.09158 14.5949 7.82404 15.1029C7.64281 15.4387 7.63418 15.5851 7.59102 18.0822L7.54787 20.7084H6.03757C4.34603 20.7084 4.07849 20.6481 3.79369 20.1918C3.62971 19.9249 3.62108 19.7699 3.62108 16.0243V12.1323L3.40532 11.9256C3.21545 11.7276 3.12915 11.7104 2.45599 11.7104C1.78282 11.7104 1.69652 11.6932 1.50665 11.4951C1.35131 11.3487 1.29089 11.1937 1.29089 10.9613C1.29089 10.6427 1.43761 10.4877 5.97716 5.96712C10.5944 1.36047 10.6634 1.29159 11 1.29159C11.3366 1.29159 11.4056 1.36047 16.0228 5.96712Z" fill="#1F1C2E"/>
</svg>
