<svg width="22" height="22" viewBox="0 0 22 22" fill="none" xmlns="http://www.w3.org/2000/svg">
<path d="M8.73044 0.0350667C8.17977 0.16408 7.66018 0.611324 7.4781 1.11017C7.43813 1.20908 7.35375 1.62192 7.28269 2.03046C7.1095 3.01956 6.95406 3.30339 6.44336 3.54421C6.23907 3.63882 6.13693 3.66033 5.87935 3.66033C5.60846 3.65603 5.47967 3.62162 4.83573 3.3808C4.10742 3.10987 4.10298 3.10987 3.63668 3.10557C3.2059 3.10557 3.14817 3.11417 2.88171 3.23888C2.72184 3.31199 2.50423 3.45821 2.39321 3.57002C2.15784 3.80224 0.203822 7.04046 0.0705935 7.4275C-0.0448712 7.75433 -0.0137845 8.27469 0.137208 8.59722C0.301523 8.93265 0.461397 9.10467 1.09201 9.60352C1.40288 9.85294 1.70486 10.1153 1.7626 10.1798C2.14452 10.6485 2.1534 11.3323 1.77592 11.7967C1.72707 11.8569 1.42064 12.1193 1.09645 12.3816C0.452515 12.8933 0.310405 13.0482 0.141649 13.3965C-0.0137845 13.719 -0.0448712 14.2394 0.0661526 14.5662C0.115003 14.6952 0.607948 15.5725 1.17195 16.5143C2.28219 18.3807 2.39321 18.5269 2.88171 18.7548C3.14817 18.8795 3.2059 18.8881 3.63668 18.8881C4.10298 18.8838 4.10742 18.8838 4.83573 18.6129C5.47967 18.3721 5.60846 18.3377 5.87935 18.3334C6.39895 18.3291 6.8164 18.5828 7.06065 19.0473C7.11838 19.1548 7.20276 19.5117 7.28269 19.9632C7.42481 20.7932 7.48254 20.9781 7.6735 21.2491C7.86002 21.5114 8.09539 21.6963 8.4329 21.8511L8.72156 21.9844L10.871 21.9973C12.2299 22.0059 13.1003 21.993 13.238 21.9672C13.7754 21.8554 14.2061 21.5286 14.4504 21.047C14.5747 20.7932 14.628 20.5997 14.7346 19.9804C14.8767 19.1376 14.9744 18.8881 15.2542 18.6516C15.5207 18.428 15.7782 18.3334 16.1379 18.3377C16.4133 18.3377 16.5376 18.3721 17.1816 18.6129C17.9099 18.8838 17.9143 18.8838 18.3806 18.8881C18.8114 18.8881 18.8691 18.8795 19.1356 18.7548C19.6197 18.5269 19.7351 18.3764 20.8365 16.5358C21.3871 15.6069 21.8757 14.7683 21.9201 14.6737C21.9778 14.549 21.9956 14.3856 22 14.0717C22 13.6975 21.9867 13.6115 21.8845 13.4051C21.7113 13.0568 21.5648 12.8976 20.9075 12.373C20.2725 11.8612 20.1082 11.6677 20.0016 11.328C19.9172 11.0571 19.9172 10.9366 20.0016 10.6657C20.1082 10.3217 20.2814 10.1196 20.9075 9.62072C21.5559 9.10467 21.7113 8.93695 21.8845 8.58862C21.9867 8.3822 22 8.29619 22 7.92205C21.9956 7.60812 21.9778 7.4447 21.9201 7.31999C21.8757 7.22538 21.3871 6.3868 20.8365 5.45791C19.7351 3.61732 19.6197 3.46681 19.1356 3.23888C18.8691 3.11417 18.8114 3.10557 18.3806 3.10557C17.9143 3.10987 17.9099 3.10987 17.1816 3.3808C16.5376 3.62162 16.4088 3.65603 16.1379 3.66033C15.6184 3.66463 15.2009 3.4109 14.9567 2.94646C14.9034 2.84325 14.8145 2.48201 14.7346 2.03907C14.668 1.63483 14.5747 1.21338 14.5303 1.09727C14.3793 0.684431 13.9574 0.275891 13.5089 0.0952727C13.3091 0.0135646 13.1714 0.00926416 11.0975 0.000663302C9.88953 -0.00363712 8.8237 0.0135646 8.73044 0.0350667ZM12.8739 1.71653C12.8739 1.72513 12.9316 2.06057 13.0071 2.46911C13.198 3.53561 13.4156 4.00006 13.9796 4.52901C14.6058 5.12247 15.5162 5.4493 16.3378 5.3848C16.7686 5.3504 16.8885 5.32029 17.7056 5.03216C18.0786 4.89885 18.3895 4.79994 18.394 4.80854C18.4028 4.81714 18.8247 5.52241 19.331 6.3696C20.0637 7.60382 20.2369 7.92635 20.1925 7.96505C20.1614 7.99086 19.9083 8.19298 19.6374 8.4123C18.9979 8.91975 18.7403 9.20358 18.5183 9.63792C18.2696 10.1153 18.1897 10.4507 18.1897 10.9969C18.1897 11.543 18.2696 11.8784 18.5183 12.3558C18.7403 12.7901 18.9979 13.074 19.6374 13.5814C19.9083 13.8007 20.1614 14.0029 20.1925 14.0287C20.2369 14.0674 20.0593 14.3942 19.331 15.6241C18.8247 16.4713 18.4028 17.1766 18.394 17.1852C18.3895 17.1938 18.0786 17.0949 17.7056 16.9615C16.8885 16.6734 16.7686 16.6433 16.3378 16.6089C15.5162 16.5444 14.6014 16.8755 13.9752 17.4604C13.4201 17.9893 13.1936 18.4624 13.0071 19.5246C12.9316 19.9331 12.8739 20.2686 12.8739 20.2729C12.8739 20.2815 12.0345 20.2858 11.0087 20.2858C9.98279 20.2858 9.14345 20.2815 9.14345 20.2729C9.14345 20.2686 9.08572 19.9331 9.01022 19.5246C8.8237 18.4624 8.6061 18.0066 8.04654 17.469C7.42481 16.8755 6.50553 16.5444 5.67951 16.6089C5.24874 16.6433 5.12883 16.6734 4.3117 16.9615C3.93866 17.0949 3.62779 17.1938 3.62335 17.1852C3.48568 17.0175 1.78036 14.0717 1.80256 14.0502C1.82033 14.033 2.0779 13.8265 2.37101 13.59C2.99274 13.0912 3.22811 12.846 3.45016 12.459C3.71661 11.9989 3.8232 11.5731 3.8232 10.9969C3.8232 10.4206 3.71661 9.99486 3.45016 9.53471C3.22811 9.14767 2.99274 8.90255 2.37101 8.4037C2.0779 8.16717 1.82033 7.96075 1.80256 7.94355C1.78036 7.92205 3.48568 4.97626 3.62335 4.80854C3.62779 4.79994 3.93866 4.89885 4.3117 5.03216C5.23098 5.359 5.3198 5.3762 5.85715 5.3805C6.41227 5.3805 6.75422 5.30309 7.25605 5.06227C7.66018 4.86875 7.9666 4.64082 8.26414 4.30109C8.66827 3.83664 8.85923 3.3722 9.01022 2.48201C9.05907 2.18528 9.11237 1.89285 9.12569 1.82404L9.15233 1.70793H11.0131C12.0345 1.70793 12.8739 1.71223 12.8739 1.71653Z" fill="#1F1C2E"/>
<path d="M10.4536 6.78674C9.83182 6.86415 9.10351 7.13507 8.52618 7.50491C8.20199 7.71133 7.61135 8.28759 7.3893 8.61012C6.37676 10.0981 6.37676 11.8956 7.3893 13.3836C7.61135 13.7061 8.20199 14.2824 8.52618 14.4888C10.2182 15.5682 12.2921 15.4736 13.8154 14.248C15.1521 13.1772 15.7116 11.3624 15.1965 9.77124C14.7035 8.24028 13.4068 7.11357 11.8169 6.82544C11.4528 6.76094 10.7955 6.73943 10.4536 6.78674ZM11.7858 8.59292C12.563 8.82514 13.2469 9.49171 13.5045 10.2658C13.6333 10.6571 13.6333 11.3366 13.5045 11.7279C13.2425 12.5106 12.5719 13.16 11.7636 13.4094C11.3551 13.5384 10.6978 13.5384 10.2759 13.4137C9.45434 13.1686 8.77488 12.5192 8.51286 11.7279C8.38407 11.3366 8.38407 10.6571 8.5173 10.2658C8.82373 9.33259 9.71192 8.61012 10.6978 8.48971C10.9598 8.4553 11.5061 8.50691 11.7858 8.59292Z" fill="#1F1C2E"/>
</svg>
