<svg width="22" height="22" viewBox="0 0 22 22" fill="none" xmlns="http://www.w3.org/2000/svg">
<path d="M12.03 0.051371C11.9311 0.103015 11.8322 0.206303 11.7806 0.309591C11.6946 0.477433 11.6946 0.554899 11.6946 5.15121C11.6946 9.74752 11.6946 9.82498 11.7806 9.99283C11.8365 10.1047 11.9268 10.1951 12.0386 10.251C12.2062 10.3371 12.2836 10.3371 16.854 10.3371C21.4243 10.3371 21.5017 10.3371 21.6694 10.251C22.0048 10.0789 22.0607 9.80777 21.9704 8.80932C21.7726 6.65749 20.8353 4.57882 19.3434 3.00368C17.6021 1.16172 15.2374 0.0814966 12.7308 -0.0174876C12.2406 -0.0347023 12.1718 -0.0303986 12.03 0.051371ZM14.0163 1.43285C16.2606 1.91055 18.1782 3.24469 19.4251 5.19425C20.0571 6.18839 20.5515 7.6086 20.6633 8.75337L20.6934 9.04602H16.8368H12.9844V5.16842V1.28652L13.2983 1.31665C13.466 1.33386 13.7927 1.38551 14.0163 1.43285Z" fill="#1F1C2E"/>
<path d="M8.98592 2.62065C7.4725 2.73255 5.72691 3.33076 4.42846 4.18288C1.56501 6.05928 -0.12469 9.29133 0.017193 12.6181C0.120381 15.097 1.08776 17.3177 2.83765 19.0779C3.68895 19.9386 4.47146 20.5024 5.52483 21.0102C6.92646 21.6902 8.15182 21.9742 9.69533 21.9742C10.8777 21.9785 11.6774 21.858 12.7222 21.5223C13.2295 21.3588 13.3413 21.3028 13.4617 21.135C13.6595 20.8553 13.681 20.9284 11.9827 16.3795L10.4047 12.1576V7.63011C10.4047 3.18013 10.4047 3.10266 10.3188 2.93482C10.1554 2.61635 9.88451 2.55179 8.98592 2.62065ZM9.1235 8.19389L9.1364 12.4674L10.6111 16.4182C11.4237 18.5915 12.0815 20.3776 12.0729 20.3819C12.0557 20.3991 11.5054 20.5239 11.2216 20.5755C9.51475 20.8897 7.57569 20.61 6.01497 19.8267C5.12928 19.3791 4.45856 18.8928 3.76204 18.1956C2.85915 17.2875 2.24003 16.3235 1.80148 15.1357C1.651 14.7269 1.44892 13.9393 1.37153 13.4573C1.28984 12.958 1.30274 11.5464 1.39303 11.0042C1.68969 9.25259 2.4163 7.78505 3.60726 6.54129C4.65204 5.44816 5.8 4.72945 7.22313 4.27756C7.76486 4.10541 8.55597 3.94618 8.95152 3.92896L9.1149 3.92466L9.1235 8.19389Z" fill="#1F1C2E"/>
<path d="M12.0343 11.7143C11.8279 11.8219 11.6731 12.1274 11.7075 12.3426C11.7204 12.4287 12.4556 14.4342 13.337 16.8012C14.6011 20.1968 14.9665 21.135 15.0611 21.2297C15.1256 21.2985 15.2589 21.3717 15.3578 21.4018C15.5598 21.4535 15.7662 21.3932 16.4455 21.0791C18.0406 20.3345 19.5283 19.0047 20.5257 17.4382C21.2653 16.2676 21.7941 14.7225 21.9489 13.2722C22.0693 12.1662 22.0177 11.8907 21.6694 11.7143C21.5017 11.6282 21.4286 11.6282 16.8454 11.6282C12.3309 11.6325 12.1847 11.6325 12.0343 11.7143ZM20.6633 13.2292C20.6203 13.6682 20.444 14.4514 20.2635 14.9851C19.8249 16.3063 18.9349 17.6533 17.8902 18.5872C17.2409 19.1639 15.9683 19.973 15.8737 19.8697C15.8479 19.8396 13.4961 13.552 13.294 12.971C13.2811 12.9322 14.0378 12.9193 16.983 12.9193H20.6934L20.6633 13.2292Z" fill="#1F1C2E"/>
</svg>
